<mxfile host="app.diagrams.net" modified="2020-12-20T00:10:51.109Z" agent="5.0 (X11; Linux x86_64) AppleWebKit/537.36 (KHTML, like Gecko) Chrome/87.0.4280.88 Safari/537.36" etag="i9xajAs2rKA2OpjZoSPE" version="14.0.5" type="github">
  <diagram id="OdiAWLacn2bQ2bZ6ZVTK" name="Page-1">
    <mxGraphModel dx="1364" dy="745" grid="1" gridSize="10" guides="1" tooltips="1" connect="1" arrows="1" fold="1" page="1" pageScale="1" pageWidth="827" pageHeight="1169" math="0" shadow="0">
      <root>
        <mxCell id="0" />
        <mxCell id="1" parent="0" />
        <mxCell id="i3KoF6FTGc-HlV7a4r-U-5" value="" style="rounded=0;whiteSpace=wrap;html=1;shadow=0;sketch=1;strokeWidth=2;fillColor=none;gradientColor=none;glass=0;" parent="1" vertex="1">
          <mxGeometry x="57.82" y="50" width="482.18" height="100" as="geometry" />
        </mxCell>
        <mxCell id="i3KoF6FTGc-HlV7a4r-U-7" value="&lt;b style=&quot;color: rgb(255 , 255 , 255) ; font-family: &amp;#34;arial&amp;#34; , sans-serif ; font-size: 14px ; text-align: left&quot;&gt;e-μS&lt;/b&gt;" style="shape=hexagon;perimeter=hexagonPerimeter2;whiteSpace=wrap;html=1;fixedSize=1;shadow=1;sketch=0;strokeWidth=1;direction=south;fillColor=#3399FF;opacity=80;" parent="1" vertex="1">
          <mxGeometry x="87.82" y="60" width="75" height="80" as="geometry" />
        </mxCell>
        <mxCell id="i3KoF6FTGc-HlV7a4r-U-13" value="Opcional" style="text;html=1;strokeColor=none;align=center;verticalAlign=middle;whiteSpace=wrap;rounded=0;shadow=0;sketch=1;rotation=270;fillColor=#ffffff;fontStyle=1" parent="1" vertex="1">
          <mxGeometry x="27.819999999999993" y="90" width="55" height="20" as="geometry" />
        </mxCell>
        <mxCell id="i3KoF6FTGc-HlV7a4r-U-14" value="" style="rounded=0;whiteSpace=wrap;html=1;shadow=0;sketch=1;strokeWidth=2;fillColor=none;gradientColor=none;glass=0;" parent="1" vertex="1">
          <mxGeometry x="57.82" y="150" width="482.18" height="130" as="geometry" />
        </mxCell>
        <mxCell id="i3KoF6FTGc-HlV7a4r-U-18" value="&lt;b style=&quot;color: rgb(255 , 255 , 255) ; font-family: &amp;#34;arial&amp;#34; , sans-serif ; font-size: 14px ; text-align: left&quot;&gt;e-μS&lt;/b&gt;" style="shape=hexagon;perimeter=hexagonPerimeter2;whiteSpace=wrap;html=1;fixedSize=1;shadow=1;sketch=0;strokeWidth=1;gradientColor=none;direction=south;fillColor=#3399FF;opacity=80;" parent="1" vertex="1">
          <mxGeometry x="180" y="60" width="75" height="80" as="geometry" />
        </mxCell>
        <mxCell id="i3KoF6FTGc-HlV7a4r-U-19" value="&lt;b style=&quot;color: rgb(255 , 255 , 255) ; font-family: &amp;#34;arial&amp;#34; , sans-serif ; font-size: 14px ; text-align: left&quot;&gt;e-μS&lt;/b&gt;" style="shape=hexagon;perimeter=hexagonPerimeter2;whiteSpace=wrap;html=1;fixedSize=1;shadow=1;sketch=0;strokeWidth=1;gradientColor=none;direction=south;fillColor=#3399FF;opacity=80;" parent="1" vertex="1">
          <mxGeometry x="270" y="60" width="75" height="80" as="geometry" />
        </mxCell>
        <mxCell id="i3KoF6FTGc-HlV7a4r-U-20" value="&lt;b style=&quot;color: rgb(255 , 255 , 255) ; font-family: &amp;#34;arial&amp;#34; , sans-serif ; font-size: 14px ; text-align: left&quot;&gt;e-μS&lt;/b&gt;" style="shape=hexagon;perimeter=hexagonPerimeter2;whiteSpace=wrap;html=1;fixedSize=1;shadow=1;sketch=0;strokeWidth=1;gradientColor=none;direction=south;fillColor=#3399FF;opacity=80;" parent="1" vertex="1">
          <mxGeometry x="360.82" y="60" width="75" height="80" as="geometry" />
        </mxCell>
        <mxCell id="i3KoF6FTGc-HlV7a4r-U-21" value="Micro-serviços de &lt;br&gt;aplicações" style="text;html=1;align=center;verticalAlign=middle;resizable=0;points=[];autosize=1;rounded=0;shadow=0;glass=0;sketch=0;fontStyle=1" parent="1" vertex="1">
          <mxGeometry x="545" y="85" width="120" height="30" as="geometry" />
        </mxCell>
        <mxCell id="i3KoF6FTGc-HlV7a4r-U-22" value="&lt;b style=&quot;color: rgb(255 , 255 , 255) ; font-family: &amp;#34;arial&amp;#34; , sans-serif ; font-size: 14px ; text-align: left&quot;&gt;Balanceador de carga&lt;/b&gt;" style="shape=hexagon;perimeter=hexagonPerimeter2;whiteSpace=wrap;html=1;fixedSize=1;shadow=1;sketch=0;strokeWidth=1;direction=south;fillColor=#fa6800;fontColor=#ffffff;opacity=80;" parent="1" vertex="1">
          <mxGeometry x="82.82" y="168.13" width="92.18" height="93.75" as="geometry" />
        </mxCell>
        <mxCell id="i3KoF6FTGc-HlV7a4r-U-23" value="&lt;b style=&quot;color: rgb(255 , 255 , 255) ; font-family: &amp;#34;arial&amp;#34; , sans-serif ; font-size: 14px ; text-align: left&quot;&gt;Servidor de registo&lt;/b&gt;" style="shape=hexagon;perimeter=hexagonPerimeter2;whiteSpace=wrap;html=1;fixedSize=1;shadow=1;sketch=0;strokeWidth=1;direction=south;fillColor=#fa6800;fontColor=#ffffff;opacity=80;" parent="1" vertex="1">
          <mxGeometry x="195.64" y="168.13" width="92.18" height="93.75" as="geometry" />
        </mxCell>
        <mxCell id="i3KoF6FTGc-HlV7a4r-U-24" value="&lt;b style=&quot;color: rgb(255 , 255 , 255) ; font-family: &amp;#34;arial&amp;#34; , sans-serif ; font-size: 14px ; text-align: left&quot;&gt;Kafka broker&lt;/b&gt;" style="shape=hexagon;perimeter=hexagonPerimeter2;whiteSpace=wrap;html=1;fixedSize=1;shadow=1;sketch=0;strokeWidth=1;direction=south;fillColor=#fa6800;fontColor=#ffffff;opacity=80;" parent="1" vertex="1">
          <mxGeometry x="307.82" y="168.13" width="92.18" height="93.75" as="geometry" />
        </mxCell>
        <mxCell id="i3KoF6FTGc-HlV7a4r-U-25" value="Micro-serviços de&lt;br&gt;suporte" style="text;html=1;align=center;verticalAlign=middle;resizable=0;points=[];autosize=1;fontStyle=1" parent="1" vertex="1">
          <mxGeometry x="545" y="200" width="120" height="30" as="geometry" />
        </mxCell>
        <mxCell id="i3KoF6FTGc-HlV7a4r-U-26" value="" style="rounded=0;whiteSpace=wrap;html=1;shadow=0;sketch=1;strokeWidth=2;fillColor=none;gradientColor=none;glass=0;" parent="1" vertex="1">
          <mxGeometry x="57.82" y="280" width="482.18" height="130" as="geometry" />
        </mxCell>
        <mxCell id="i3KoF6FTGc-HlV7a4r-U-27" value="&lt;b style=&quot;color: rgb(255 , 255 , 255) ; font-family: &amp;#34;arial&amp;#34; , sans-serif ; font-size: 14px ; text-align: left&quot;&gt;Monitorização de pedidos&lt;/b&gt;" style="shape=hexagon;perimeter=hexagonPerimeter2;whiteSpace=wrap;html=1;fixedSize=1;shadow=1;sketch=0;strokeWidth=1;direction=south;fillColor=#e51400;fontColor=#ffffff;opacity=80;" parent="1" vertex="1">
          <mxGeometry x="155" y="296.25" width="100" height="97.5" as="geometry" />
        </mxCell>
        <mxCell id="i3KoF6FTGc-HlV7a4r-U-28" value="Opcional" style="text;html=1;strokeColor=none;align=center;verticalAlign=middle;whiteSpace=wrap;rounded=0;shadow=0;sketch=1;rotation=270;fillColor=#ffffff;fontStyle=1" parent="1" vertex="1">
          <mxGeometry x="27.819999999999993" y="205" width="55" height="20" as="geometry" />
        </mxCell>
        <mxCell id="i3KoF6FTGc-HlV7a4r-U-30" value="Obrigatório" style="text;html=1;strokeColor=none;align=center;verticalAlign=middle;whiteSpace=wrap;rounded=0;shadow=0;sketch=1;rotation=270;fillColor=#ffffff;fontStyle=1" parent="1" vertex="1">
          <mxGeometry x="19.999999999999986" y="335" width="70.63" height="20" as="geometry" />
        </mxCell>
        <mxCell id="i3KoF6FTGc-HlV7a4r-U-34" value="&lt;b style=&quot;color: rgb(255 , 255 , 255) ; font-family: &amp;#34;arial&amp;#34; , sans-serif ; font-size: 14px ; text-align: left&quot;&gt;Prometheus&lt;/b&gt;" style="shape=hexagon;perimeter=hexagonPerimeter2;whiteSpace=wrap;html=1;fixedSize=1;shadow=1;sketch=0;strokeWidth=1;direction=south;fillColor=#e51400;fontColor=#ffffff;opacity=80;" parent="1" vertex="1">
          <mxGeometry x="345" y="296.25" width="100" height="97.5" as="geometry" />
        </mxCell>
        <mxCell id="i3KoF6FTGc-HlV7a4r-U-35" value="Micro-serviços de&lt;br&gt;monitorização" style="text;html=1;align=center;verticalAlign=middle;resizable=0;points=[];autosize=1;fontStyle=1" parent="1" vertex="1">
          <mxGeometry x="545" y="330" width="120" height="30" as="geometry" />
        </mxCell>
        <mxCell id="i3KoF6FTGc-HlV7a4r-U-36" value="" style="rounded=0;whiteSpace=wrap;html=1;shadow=0;sketch=1;strokeWidth=2;fillColor=none;gradientColor=none;glass=0;" parent="1" vertex="1">
          <mxGeometry x="57.82" y="410" width="482.18" height="80" as="geometry" />
        </mxCell>
        <mxCell id="i3KoF6FTGc-HlV7a4r-U-37" value="&lt;font style=&quot;font-size: 13px&quot;&gt;&lt;b&gt;Docker&lt;/b&gt;&lt;/font&gt;" style="rounded=0;whiteSpace=wrap;html=1;shadow=1;glass=0;sketch=0;strokeColor=#000000;strokeWidth=2;gradientColor=none;fillColor=#FFFFFF;" parent="1" vertex="1">
          <mxGeometry x="145" y="427.5" width="120" height="45" as="geometry" />
        </mxCell>
        <mxCell id="i3KoF6FTGc-HlV7a4r-U-38" value="&lt;b&gt;&lt;font style=&quot;font-size: 13px&quot;&gt;Node exporter&lt;/font&gt;&lt;/b&gt;" style="rounded=0;whiteSpace=wrap;html=1;shadow=1;glass=0;sketch=0;strokeColor=#000000;strokeWidth=2;gradientColor=none;" parent="1" vertex="1">
          <mxGeometry x="335" y="427.5" width="120" height="45" as="geometry" />
        </mxCell>
        <mxCell id="i3KoF6FTGc-HlV7a4r-U-39" value="&lt;b&gt;Processos&lt;/b&gt;" style="text;html=1;align=center;verticalAlign=middle;resizable=0;points=[];autosize=1;" parent="1" vertex="1">
          <mxGeometry x="565" y="440" width="80" height="20" as="geometry" />
        </mxCell>
        <mxCell id="i3KoF6FTGc-HlV7a4r-U-41" value="&lt;b style=&quot;color: rgb(255 , 255 , 255) ; font-family: &amp;#34;arial&amp;#34; , sans-serif ; font-size: 14px ; text-align: left&quot;&gt;Gestor local&lt;/b&gt;" style="shape=hexagon;perimeter=hexagonPerimeter2;whiteSpace=wrap;html=1;fixedSize=1;shadow=1;sketch=0;strokeWidth=1;direction=south;fillColor=#fa6800;fontColor=#ffffff;opacity=80;" parent="1" vertex="1">
          <mxGeometry x="420" y="168.13" width="92.18" height="93.75" as="geometry" />
        </mxCell>
        <mxCell id="i3KoF6FTGc-HlV7a4r-U-43" value="&lt;b style=&quot;color: rgb(255 , 255 , 255) ; font-family: &amp;#34;arial&amp;#34; , sans-serif ; font-size: 14px ; text-align: left&quot;&gt;e-μS&lt;/b&gt;" style="shape=hexagon;perimeter=hexagonPerimeter2;whiteSpace=wrap;html=1;fixedSize=1;shadow=1;sketch=0;strokeWidth=1;gradientColor=none;direction=south;fillColor=#3399FF;opacity=80;" parent="1" vertex="1">
          <mxGeometry x="450" y="60" width="75" height="80" as="geometry" />
        </mxCell>
        <mxCell id="i3KoF6FTGc-HlV7a4r-U-45" style="edgeStyle=orthogonalEdgeStyle;rounded=1;orthogonalLoop=1;jettySize=auto;html=1;strokeColor=#3399FF;strokeWidth=2;" parent="1" source="i3KoF6FTGc-HlV7a4r-U-34" target="i3KoF6FTGc-HlV7a4r-U-38" edge="1">
          <mxGeometry relative="1" as="geometry">
            <mxPoint x="480" y="445" as="targetPoint" />
            <Array as="points">
              <mxPoint x="500" y="345" />
              <mxPoint x="500" y="445" />
            </Array>
          </mxGeometry>
        </mxCell>
        <mxCell id="i3KoF6FTGc-HlV7a4r-U-46" value="Obrigatório" style="text;html=1;strokeColor=none;align=center;verticalAlign=middle;whiteSpace=wrap;rounded=0;shadow=0;sketch=1;rotation=270;fillColor=#ffffff;fontStyle=1" parent="1" vertex="1">
          <mxGeometry x="19.999999999999986" y="440" width="70.63" height="20" as="geometry" />
        </mxCell>
      </root>
    </mxGraphModel>
  </diagram>
</mxfile>
